<?xml version="1.0" encoding="UTF-8"?>
<svg id="Calque_2" data-name="Calque 2" xmlns="http://www.w3.org/2000/svg" viewBox="0 0 150 103">
  <defs>
    <style>
      .cls-1 {
        fill: #343333;
      }

      .cls-1, .cls-2, .cls-3 {
        stroke-width: 0px;
      }

      .cls-2 {
        fill: #c4c4c4;
      }

      .cls-3 {
        fill: #fff;
      }
    </style>
  </defs>
  <g id="Calque_2-2" data-name="Calque 2">
    <g id="Calque_4" data-name="Calque 4">
      <path class="cls-2" d="M16,13h118c8.8,0,16,7.2,16,16v58c0,8.8-7.2,16-16,16H16c-8.8,0-16-7.2-16-16V29C0,20.2,7.2,13,16,13Z"/>
      <path class="cls-3" d="M16,0h118c8.8,0,16,7.2,16,16v58c0,8.8-7.2,16-16,16H16c-8.8,0-16-7.2-16-16V16C0,7.2,7.2,0,16,0Z"/>
    </g>
    <g id="Calque_5" data-name="Calque 5">
      <path class="cls-1" d="M45.3,21.3l21.4,22.1c.5.5.1,1.5-.6,1.5h-12.8c-.5,0-.9.4-.9.9v21.8c0,.5-.4.9-.9.9h-13.8c-.5,0-.9-.4-.9-.9v-21.8c0-.5-.4-.9-.9-.9h-12.6c-.8,0-1.2-.9-.6-1.5l21.3-22.1c.4-.3,1-.3,1.3,0Z"/>
      <path class="cls-1" d="M106,21.3l21.4,22.1c.5.5.1,1.5-.6,1.5h-12.8c-.5,0-.9.4-.9.9v21.8c0,.5-.4.9-.9.9h-13.8c-.5,0-.9-.4-.9-.9v-21.8c0-.5-.4-.9-.9-.9h-12.7c-.8,0-1.2-.9-.6-1.5l21.4-22.1c.3-.3.9-.3,1.3,0h0Z"/>
    </g>
  </g>
</svg>